<?xml version="1.0" encoding="UTF-8" standalone="no"?>
<!-- Generator: Adobe Illustrator 19.2.1, SVG Export Plug-In . SVG Version: 6.00 Build 0)  -->

<svg
   version="1.1"
   id="layer"
   x="0px"
   y="0px"
   viewBox="0 0 600.06 174.59541"
   xml:space="preserve"
   width="600.06"
   height="174.59541"
   xmlns="http://www.w3.org/2000/svg"
   xmlns:svg="http://www.w3.org/2000/svg"><defs
   id="defs25" />
<style
   type="text/css"
   id="style18">
	.st0{fill:#003C65;}
</style>
<path
   class="st0"
   d="m 273.43511,137.70654 h -0.45829 c -2.38309,0 -3.94127,1.2832 -4.85784,2.74972 v -1.83315 c 0,-0.45829 -0.36663,-0.91657 -0.82492,-0.91657 h -2.01647 c -0.45828,0 -0.82491,0.36663 -0.82491,0.91657 v 16.49835 c 0,0.45829 0.36663,0.82492 0.82491,0.82492 h 2.19978 c 0.45829,0 0.91658,-0.36663 0.91658,-0.82492 v -8.24917 c 0,-3.39133 1.55818,-5.22448 4.67453,-5.22448 h 0.54994 c 0.45829,0 0.91658,-0.36663 0.91658,-0.82492 v -2.19978 c -0.27497,-0.45829 -0.6416,-0.91657 -1.09989,-0.91657 m 9.71569,4.85784 c 0,-1.55817 1.37487,-2.01646 2.93304,-2.01646 2.47476,0 3.11636,1.2832 3.48299,2.29144 0.18331,0.36663 0.27497,0.54994 0.6416,0.54994 h 2.29144 c 0.36663,0 0.6416,-0.18331 0.6416,-0.6416 0,-0.18332 0,-0.36663 -0.0917,-0.45829 -0.54994,-2.19978 -2.29143,-4.85785 -6.78265,-4.85785 -3.57464,0 -6.87431,1.55818 -6.87431,5.4078 0,7.42425 10.35729,4.3079 10.35729,8.15751 0,1.64984 -1.2832,2.29144 -3.39132,2.29144 -2.65807,0 -3.39133,-1.46652 -3.75796,-2.47475 -0.0917,-0.36663 -0.27497,-0.54995 -0.6416,-0.54995 h -2.29144 c -0.36663,0 -0.6416,0.27498 -0.6416,0.54995 0,0.18331 0,0.36663 0,0.54994 0.45828,2.47476 2.74972,5.04117 7.24094,5.04117 3.75796,0 7.14928,-1.46652 7.14928,-5.59111 0.0917,-7.3326 -10.26564,-4.3079 -10.26564,-8.24918 m 45.82875,-5.22447 c -2.56641,0 -4.12458,1.09989 -5.04116,2.47475 v -8.52415 c 0,-0.45829 -0.36663,-0.91657 -0.91657,-0.91657 H 320.822 c -0.45829,0 -0.82492,0.36663 -0.82492,0.91657 v 23.83095 c 0,0.45829 0.36663,0.82492 0.82492,0.82492 h 2.19978 c 0.45828,0 0.91657,-0.36663 0.91657,-0.82492 v -9.89901 c 0,-2.93304 1.55818,-4.49122 3.84962,-4.49122 2.29143,0 3.84961,1.64984 3.84961,4.49122 v 9.89901 c 0,0.45829 0.36663,0.82492 0.82492,0.82492 h 2.19978 c 0.45829,0 0.91657,-0.36663 0.91657,-0.82492 v -9.44072 c 0,-4.94951 -2.10812,-8.34083 -6.59934,-8.34083 m 28.0472,0.36663 h -2.19978 c -0.45829,0 -0.82492,0.36663 -0.82492,0.91657 v 9.89901 c 0,2.93304 -1.46652,4.49122 -3.75796,4.49122 -2.19978,0 -3.57464,-1.64984 -3.57464,-4.49122 v -9.89901 c 0,-0.45829 -0.36663,-0.91657 -0.91657,-0.91657 h -2.19978 c -0.45829,0 -0.82492,0.36663 -0.82492,0.91657 v 9.44072 c 0,5.13282 2.10812,8.24918 6.41602,8.24918 2.65807,0 3.94128,-1.00823 4.85785,-2.29144 v 1.09989 c 0,0.45829 0.36663,0.82492 0.82492,0.82492 h 2.19978 c 0.45829,0 0.91657,-0.36663 0.91657,-0.82492 v -16.49835 c 0,-0.45829 -0.45828,-0.91657 -0.91657,-0.91657 m -50.41163,3.02469 c 2.19978,0 3.29967,1.28321 3.75796,3.20802 0,0.27497 0.27497,0.54994 0.6416,0.54994 h 2.47476 c 0.36663,0 0.54994,-0.27497 0.54994,-0.54994 0,-0.18332 0,-0.27498 -0.0917,-0.45829 -0.73326,-3.39133 -3.39132,-6.0494 -7.42425,-6.0494 -4.30791,0 -7.79089,3.20802 -7.79089,8.34084 v 2.38309 c 0,5.13282 3.39133,8.24918 7.79089,8.24918 4.58287,0 6.96597,-3.39133 7.42425,-5.86608 0,-0.18332 0.0917,-0.45829 0.0917,-0.54995 0,-0.36663 -0.27497,-0.54994 -0.6416,-0.54994 h -2.47475 c -0.27498,0 -0.54995,0.18331 -0.54995,0.54994 -0.45829,2.10812 -1.74149,3.20801 -3.75796,3.20801 -2.29143,0 -3.94127,-1.64983 -3.94127,-4.49121 v -3.20802 c 0,-3.20801 1.64984,-4.76619 3.94127,-4.76619 M 299.64911,29.184066 c 4.58288,0 7.60758,-3.0247 7.60758,-7.60757 0,-4.58288 -3.0247,-7.60758 -7.60758,-7.60758 -4.58287,0 -7.60757,3.0247 -7.60757,7.60758 0,4.49121 3.0247,7.60757 7.60757,7.60757 M 81.870942,75.562756 107.99333,7.9195268 C 75.546574,4.4365368 43.46645,21.209866 28.251305,50.998546 c -0.09166,0.18332 -0.09166,0.27498 -0.09166,0.45829 l -1.09989,2.93304 c -7.882544,20.43962 4.124588,35.56311 15.856748,40.05433 11.640502,4.49121 31.071892,1.55817 38.954437,-18.88145 m 239.95933,-46.37869 c 4.58287,0 7.60757,-3.0247 7.60757,-7.60757 0,-4.58288 -3.0247,-7.60758 -7.60757,-7.60758 -4.58288,0 -7.60757,3.0247 -7.60757,7.60758 0,4.49121 3.11635,7.60757 7.60757,7.60757 m -192.66406,63.88527 c -15.67343,40.604274 -53.161348,55.819414 -87.257937,49.953334 7.790887,8.15752 17.506582,14.6652 28.688796,19.06476 41.154221,15.94841 87.532911,-4.58287 103.389651,-45.73709 12.09879,-31.346854 3.11636,-65.718424 -20.07299,-87.349594 z m 136.66133,-54.16958 c 0,-1.83315 -1.46652,-3.29967 -3.29967,-3.29967 h -8.79912 c -1.83315,0 -3.29967,1.46652 -3.29967,3.29967 v 47.84522 c 0,6.69099 -5.22448,9.62403 -8.98244,9.62403 -3.84961,0 -8.89077,-2.93304 -8.89077,-9.62403 v -0.91658 c 0,-1.83315 -1.46652,-3.29967 -3.29967,-3.29967 h -8.43249 c -1.83315,0 -3.29967,1.46652 -3.29967,3.29967 v 0.73326 c 0,15.306804 11.82381,24.197574 23.9226,24.197574 12.28211,0 24.3809,-8.89077 24.3809,-24.197574 z m -15.49012,98.440154 c -4.39956,0 -7.88254,3.20801 -7.88254,8.34083 v 2.38309 c 0,5.13282 3.48298,8.24918 7.88254,8.24918 4.39956,0 7.88255,-3.20801 7.88255,-8.24918 v -2.38309 c 0,-5.13282 -3.48299,-8.34083 -7.88255,-8.34083 m 3.94127,11.18221 c 0,2.93304 -1.64983,4.49122 -3.94127,4.49122 -2.19978,0 -3.94127,-1.64984 -3.94127,-4.49122 v -3.20801 c 0,-2.93304 1.64983,-4.49122 3.94127,-4.49122 2.29144,0 3.94127,1.64984 3.94127,4.49122 z m -15.9484,-18.05653 h -14.29857 c -0.45829,0 -0.82492,0.36663 -0.82492,0.91658 v 23.83095 c 0,0.45829 0.36663,0.82492 0.82492,0.82492 h 2.19978 c 0.45829,0 0.91657,-0.36663 0.91657,-0.82492 v -9.34907 h 8.79912 c 0.45829,0 0.91658,-0.36663 0.91658,-0.82491 v -2.01647 c 0,-0.45829 -0.36663,-0.91657 -0.91658,-0.91657 h -8.79912 v -7.97421 h 11.09056 c 0.45829,0 0.91658,-0.36663 0.91658,-0.82491 v -1.92481 c 0,-0.54995 -0.36663,-0.91658 -0.82492,-0.91658 m 96.607,-94.865504 h -8.79912 c -1.83315,0 -3.29967,1.46652 -3.29967,3.29967 v 41.88748 c 0,10.90724 -5.31613,15.58177 -12.83205,15.58177 -7.51591,0 -12.55708,-4.67453 -12.55708,-15.58177 v -41.88748 c 0,-1.83315 -1.46652,-3.29967 -3.29967,-3.29967 h -8.70746 c -1.83315,0 -3.29967,1.46652 -3.29967,3.29967 v 41.88748 c 0,18.51481 11.18222,29.971994 27.95554,29.971994 16.68166,0 28.13885,-11.457184 28.13885,-29.971994 v -41.88748 c 0,-1.74149 -1.46652,-3.29967 -3.29967,-3.29967 M 518.71057,137.70654 h -0.45828 c -2.3831,0 -3.94128,1.2832 -4.85785,2.74972 v -1.83315 c 0,-0.45829 -0.36663,-0.91657 -0.82492,-0.91657 h -2.01646 c -0.45829,0 -0.82492,0.36663 -0.82492,0.91657 v 16.49835 c 0,0.45829 0.36663,0.82492 0.82492,0.82492 h 2.19978 c 0.45828,0 0.91657,-0.36663 0.91657,-0.82492 v -8.24917 c 0,-3.39133 1.55818,-5.22448 4.67453,-5.22448 h 0.54995 c 0.45829,0 0.91657,-0.36663 0.91657,-0.82492 v -2.19978 c -0.27497,-0.45829 -0.6416,-0.91657 -1.09989,-0.91657 M 502.4872,83.261986 h -10.90724 c -2.10813,0 -2.56641,1.64984 -2.74973,3.29967 -0.54994,5.04116 -4.3079,9.80735 -12.09879,9.80735 -7.69923,0 -13.93194,-5.68276 -13.93194,-16.59 v -13.93194 c 0,-10.90724 6.23271,-16.86498 13.93194,-16.86498 7.69923,0 11.18222,5.22448 12.09879,10.26564 0.27497,2.10812 1.46652,2.84138 2.65807,2.84138 h 10.81558 c 1.55818,0 2.47475,-1.09989 2.29144,-2.65807 -0.82492,-12.83205 -10.90724,-24.83918 -27.86388,-24.83918 -16.95664,0 -29.3304,12.46542 -29.3304,30.98024 v 14.20691 c 0,18.51481 12.37376,30.980224 29.3304,30.980224 16.95664,0 27.13062,-12.465414 28.04719,-24.930834 0.0917,-1.19154 -0.82491,-2.56641 -2.29143,-2.56641 m -0.36663,54.444554 h -3.6663 v -3.84962 c 0,-0.45829 -0.36663,-0.91657 -0.82492,-0.91657 h -2.10812 c -0.45829,0 -0.82492,0.36663 -0.82492,0.91657 v 1.64984 c 0,1.83315 -0.73326,2.29143 -2.47475,2.29143 -0.45829,0 -0.82492,0.36663 -0.82492,0.91658 v 1.74149 c 0,0.45829 0.36663,0.82492 0.82492,0.82492 h 2.47475 v 8.98243 c 0,3.75796 1.28321,5.86608 5.68277,5.86608 h 1.9248 c 0.45829,0 0.91658,-0.36663 0.91658,-0.82491 v -1.83315 c 0,-0.45829 -0.36663,-0.82492 -0.91658,-0.82492 h -1.19154 c -2.19978,0 -2.47476,-0.73326 -2.47476,-2.84138 v -8.43249 h 3.6663 c 0.45829,0 0.91658,-0.36663 0.91658,-0.82492 v -1.74149 c -0.18332,-0.64161 -0.64161,-1.09989 -1.09989,-1.09989 m 65.71842,-0.36663 c -2.47475,0 -4.39956,1.09989 -5.68276,2.93304 -1.19155,-2.10813 -3.11636,-2.93304 -5.31614,-2.93304 -2.47475,0 -3.84961,1.09989 -4.76619,2.47475 v -1.19155 c 0,-0.45829 -0.36663,-0.91657 -0.91657,-0.91657 h -2.19978 c -0.45829,0 -0.82492,0.36663 -0.82492,0.91657 v 16.49835 c 0,0.45829 0.36663,0.82492 0.82492,0.82492 h 2.19978 c 0.45829,0 0.91657,-0.36663 0.91657,-0.82492 v -9.25741 c 0,-2.93304 0.54995,-5.13282 3.6663,-5.13282 2.84139,0 3.48299,1.83315 3.48299,5.13282 v 9.25741 c 0,0.45829 0.36663,0.82492 0.82492,0.82492 h 2.29143 c 0.45829,0 0.82492,-0.36663 0.82492,-0.82492 v -9.25741 c 0,-3.11635 0.73326,-5.13282 3.6663,-5.13282 2.93304,0 3.48299,1.92481 3.48299,5.13282 v 9.25741 c 0,0.45829 0.36663,0.82492 0.82491,0.82492 h 2.19978 c 0.45829,0 0.91658,-0.36663 0.91658,-0.82492 v -8.98243 c 0,-5.22448 -1.09989,-8.79912 -6.41603,-8.79912 m 3.29967,-101.739824 h -8.79912 c -1.83315,0 -3.29967,1.46652 -3.29967,3.29967 v 26.48902 h -25.11415 v -26.48902 c 0,-1.83315 -1.46652,-3.29967 -3.29967,-3.29967 h -8.70746 c -1.83315,0 -3.29967,1.46652 -3.29967,3.29967 v 67.551574 c 0,1.83315 1.46652,3.29967 3.29967,3.29967 h 8.79912 c 1.83315,0 3.29967,-1.46652 3.29967,-3.29967 V 79.779006 h 25.11415 v 26.672324 c 0,1.83315 1.46652,3.29967 3.29967,3.29967 h 8.79912 c 1.83315,0 3.29967,-1.46652 3.29967,-3.29967 V 38.899756 c -0.0917,-1.74149 -1.55818,-3.29967 -3.39133,-3.29967 M 402.48887,106.45133 v -7.790884 c 0,-1.83315 -1.46652,-3.29967 -3.29967,-3.29967 h -28.13885 v -56.36936 c 0,-1.83315 -1.46652,-3.29967 -3.29967,-3.29967 h -8.79912 c -1.83315,0 -3.29967,1.46652 -3.29967,3.29967 v 67.551574 c 0,1.83315 1.46652,3.29967 3.29967,3.29967 h 40.23764 c 1.83315,-0.0917 3.29967,-1.64984 3.29967,-3.39133 m 77.08395,30.88858 c -2.56641,0 -4.03293,1.09989 -5.04116,2.47475 v -1.28321 c 0,-0.45828 -0.36663,-0.91657 -0.91657,-0.91657 h -2.10813 c -0.45828,0 -0.82491,0.36663 -0.82491,0.91657 v 16.49835 c 0,0.45829 0.36663,0.82492 0.82491,0.82492 h 2.19978 c 0.45829,0 0.91658,-0.36663 0.91658,-0.82492 v -9.89901 c 0,-2.93304 1.64983,-4.49121 3.84961,-4.49121 2.29144,0 3.84962,1.64983 3.84962,4.49121 v 9.89901 c 0,0.45829 0.36663,0.82492 0.82492,0.82492 h 2.19978 c 0.45828,0 0.91657,-0.36663 0.91657,-0.82492 v -9.44072 c 0,-4.85785 -2.19978,-8.24917 -6.691,-8.24917 m 60.12732,0.36663 h -2.19978 c -0.45829,0 -0.82492,0.36663 -0.82492,0.91657 v 9.89901 c 0,2.93304 -1.46652,4.49122 -3.75795,4.49122 -2.19978,0 -3.57465,-1.64984 -3.57465,-4.49122 v -9.89901 c 0,-0.45829 -0.36663,-0.91657 -0.91657,-0.91657 h -2.19978 c -0.45829,0 -0.82492,0.36663 -0.82492,0.91657 v 9.44072 c 0,5.13282 2.10812,8.24918 6.41603,8.24918 2.65806,0 3.94127,-1.00823 4.85784,-2.29144 v 1.09989 c 0,0.45829 0.36663,0.82492 0.82492,0.82492 h 2.19978 c 0.45829,0 0.91658,-0.36663 0.91658,-0.82492 v -16.49835 c 0,-0.45829 -0.45829,-0.91657 -0.91658,-0.91657 m -141.79415,14.75685 h -4.67453 c -1.19155,0 -1.74149,-0.36663 -1.74149,-1.2832 0,-0.82492 0.54994,-1.28321 1.46652,-1.28321 h 3.57464 c 4.12459,0 6.96597,-2.19978 6.96597,-6.23271 v -7.51591 c 0,-0.45829 -0.36663,-0.82492 -0.82492,-0.82492 h -1.83315 c -0.54994,0 -0.91657,0.36663 -0.91657,0.82492 v 2.38309 c -1.09989,-0.82491 -2.47476,-1.19154 -3.75796,-1.19154 h -0.91658 c -4.12458,0 -6.96597,2.38309 -6.96597,6.32436 0,1.92481 0.73326,3.39133 2.29144,4.49122 -1.74149,0.36663 -2.47475,1.55818 -2.47475,3.0247 0,1.2832 0.54994,2.29144 1.64983,2.74972 -1.55817,0.82492 -2.47475,2.29144 -2.47475,4.21625 0,3.0247 2.29144,5.59111 6.41603,5.59111 h 4.21624 c 4.12459,0 6.41603,-2.47476 6.41603,-5.59111 0,-3.11636 -2.29144,-5.68277 -6.41603,-5.68277 m -2.56641,-12.00713 h 1.00823 c 2.19978,0 3.39133,1.37486 3.39133,3.20801 0,1.92481 -1.2832,3.20802 -3.39133,3.20802 h -1.00823 c -2.10812,0 -3.39133,-1.28321 -3.39133,-3.20802 -0.0917,-1.9248 1.19155,-3.20801 3.39133,-3.20801 m 1.83315,20.16465 h -2.84138 c -2.47475,0 -3.39133,-1.00823 -3.39133,-2.56641 0,-1.64983 0.91658,-2.65807 3.39133,-2.65807 h 2.84138 c 2.47475,0 3.39133,1.00824 3.39133,2.65807 0.0917,1.55818 -0.82492,2.56641 -3.39133,2.56641 m -22.73106,-23.281 c -2.56641,0 -4.03293,1.09989 -5.04116,2.47475 v -1.28321 c 0,-0.45828 -0.36663,-0.91657 -0.91657,-0.91657 h -2.19978 c -0.45829,0 -0.82492,0.36663 -0.82492,0.91657 v 16.49835 c 0,0.45829 0.36663,0.82492 0.82492,0.82492 h 2.19978 c 0.45828,0 0.91657,-0.36663 0.91657,-0.82492 v -9.89901 c 0,-2.93304 1.64984,-4.49121 3.84962,-4.49121 2.29143,0 3.84961,1.64983 3.84961,4.49121 v 9.89901 c 0,0.45829 0.36663,0.82492 0.82492,0.82492 h 2.19978 c 0.45829,0 0.91657,-0.36663 0.91657,-0.82492 v -9.44072 c 0.0917,-4.85785 -2.10812,-8.24917 -6.59934,-8.24917 m 38.95444,5.22447 c 0,-1.55817 1.37486,-2.01646 2.93304,-2.01646 2.47475,0 3.11635,1.2832 3.48298,2.29144 0.18332,0.36663 0.27498,0.54994 0.64161,0.54994 h 2.29143 c 0.36663,0 0.64161,-0.18331 0.64161,-0.6416 0,-0.18332 0,-0.36663 -0.0917,-0.45829 -0.54995,-2.19978 -2.29144,-4.85785 -6.78266,-4.85785 -3.57464,0 -6.87431,1.55818 -6.87431,5.4078 0,7.42425 10.3573,4.3079 10.3573,8.15751 0,1.64984 -1.28321,2.29144 -3.39133,2.29144 -2.65807,0 -3.39133,-1.46652 -3.75796,-2.47475 -0.0917,-0.36663 -0.27497,-0.54995 -0.6416,-0.54995 h -2.29144 c -0.36663,0 -0.6416,0.27498 -0.6416,0.54995 0,0.18331 0,0.36663 0,0.54994 0.45829,2.47476 2.74973,5.04117 7.24094,5.04117 3.75796,0 7.14929,-1.46652 7.14929,-5.59111 0.0917,-7.3326 -10.26564,-4.3079 -10.26564,-8.24918 m 28.87211,-4.85784 h -12.00709 c -0.45829,0 -0.91658,0.36663 -0.91658,0.91657 v 1.74149 c 0,0.45829 0.36663,0.82492 0.91658,0.82492 h 8.24917 l -8.52414,10.90724 c -0.45829,0.54995 -0.64161,0.73326 -0.64161,1.64984 v 1.46652 c 0,0.45829 0.36663,0.82492 0.91658,0.82492 h 12.00713 c 0.45829,0 0.82492,-0.36663 0.82492,-0.82492 v -1.64984 c 0,-0.45828 -0.36663,-0.91657 -0.82492,-0.91657 h -8.43249 l 8.70746,-10.81559 c 0.45829,-0.54994 0.54995,-0.91657 0.54995,-1.46652 v -1.74149 c 0.0917,-0.45829 -0.27497,-0.91657 -0.82492,-0.91657 M 431.54429,106.45133 V 38.899756 c 0,-1.83315 -1.46652,-3.29967 -3.29967,-3.29967 h -8.79912 c -1.83315,0 -3.29967,1.46652 -3.29967,3.29967 v 67.551574 c 0,1.83315 1.46652,3.29967 3.29967,3.29967 h 8.79912 c 1.83315,0 3.29967,-1.55818 3.29967,-3.29967 m 24.83919,30.88858 c -4.39956,0 -7.88255,3.20801 -7.88255,8.34083 v 2.38309 c 0,5.13282 3.48299,8.24918 7.88255,8.24918 2.65806,0 5.86608,-1.28321 7.14928,-4.85785 0.0917,-0.18331 0.18332,-0.36663 0.18332,-0.54994 0,-0.36663 -0.27498,-0.64161 -0.54995,-0.64161 h -2.38309 c -0.54995,0 -0.73326,0.36663 -0.82492,0.54995 -1.00823,1.92481 -2.29144,2.19978 -3.57464,2.19978 -2.29144,0 -3.94128,-1.74149 -3.94128,-4.3079 v -0.54995 h 10.81559 c 0.45829,0 0.82492,-0.36663 0.82492,-0.91657 v -1.64984 c 0.0916,-4.85785 -3.39133,-8.24917 -7.69923,-8.24917 m 3.94127,8.06586 h -7.88255 v -0.36663 c 0,-2.65807 1.64984,-4.30791 3.94128,-4.30791 2.29143,0 3.94127,1.55818 3.94127,4.21625 z"
   id="path20"
   style="fill:#ffffff;stroke-width:0.916575" />
</svg>
